<svg width="64" height="64" viewBox="0 0 64 64" fill="none" xmlns="http://www.w3.org/2000/svg">
<g filter="url(#filter0_d_359_763)">
<rect x="16" y="10" width="32" height="32" rx="4" fill="white"/>
<path d="M40.9524 28.6667H37.8095C36.976 28.6667 36.1766 28.9978 35.5872 29.5872C34.9978 30.1766 34.6667 30.976 34.6667 31.8095V34.9524C34.6667 35.2302 34.7771 35.4967 34.9735 35.6932C35.17 35.8896 35.4365 36 35.7143 36C35.9922 36 36.2586 35.8896 36.4551 35.6932C36.6516 35.4967 36.7619 35.2302 36.7619 34.9524V31.8095C36.7619 31.5317 36.8723 31.2652 37.0688 31.0688C37.2652 30.8723 37.5317 30.7619 37.8095 30.7619H40.9524C41.2302 30.7619 41.4967 30.6516 41.6932 30.4551C41.8896 30.2586 42 29.9922 42 29.7143C42 29.4365 41.8896 29.17 41.6932 28.9735C41.4967 28.7771 41.2302 28.6667 40.9524 28.6667Z" fill="#5584AC"/>
<path d="M28.2857 36C28.5636 36 28.83 35.8896 29.0265 35.6932C29.223 35.4967 29.3333 35.2302 29.3333 34.9524V31.8095C29.3333 30.976 29.0022 30.1766 28.4128 29.5872C27.8234 28.9978 27.024 28.6667 26.1905 28.6667H23.0476C22.7698 28.6667 22.5033 28.7771 22.3068 28.9735C22.1104 29.17 22 29.4365 22 29.7143C22 29.9922 22.1104 30.2586 22.3068 30.4551C22.5033 30.6516 22.7698 30.7619 23.0476 30.7619H26.1905C26.4683 30.7619 26.7348 30.8723 26.9313 31.0688C27.1277 31.2652 27.2381 31.5317 27.2381 31.8095V34.9524C27.2381 35.2302 27.3485 35.4967 27.5449 35.6932C27.7414 35.8896 28.0079 36 28.2857 36Z" fill="#5584AC"/>
<path d="M40.9524 21.2381H37.8095C37.5317 21.2381 37.2652 21.1277 37.0688 20.9313C36.8723 20.7348 36.7619 20.4683 36.7619 20.1905V17.0476C36.7619 16.7698 36.6516 16.5033 36.4551 16.3068C36.2586 16.1104 35.9922 16 35.7143 16C35.4365 16 35.17 16.1104 34.9735 16.3068C34.7771 16.5033 34.6667 16.7698 34.6667 17.0476V20.1905C34.6667 21.024 34.9978 21.8234 35.5872 22.4128C36.1766 23.0022 36.976 23.3333 37.8095 23.3333H40.9524C41.2302 23.3333 41.4967 23.223 41.6932 23.0265C41.8896 22.83 42 22.5636 42 22.2857C42 22.0079 41.8896 21.7414 41.6932 21.5449C41.4967 21.3485 41.2302 21.2381 40.9524 21.2381Z" fill="#5584AC"/>
<path d="M29.3333 17.0476C29.3333 16.7698 29.223 16.5033 29.0265 16.3068C28.83 16.1104 28.5636 16 28.2857 16C28.0079 16 27.7414 16.1104 27.5449 16.3068C27.3485 16.5033 27.2381 16.7698 27.2381 17.0476V20.1905C27.2381 20.4683 27.1277 20.7348 26.9313 20.9313C26.7348 21.1277 26.4683 21.2381 26.1905 21.2381H23.0476C22.7698 21.2381 22.5033 21.3485 22.3068 21.5449C22.1104 21.7414 22 22.0079 22 22.2857C22 22.5636 22.1104 22.83 22.3068 23.0265C22.5033 23.223 22.7698 23.3333 23.0476 23.3333H26.1905C27.024 23.3333 27.8234 23.0022 28.4128 22.4128C29.0022 21.8234 29.3333 21.024 29.3333 20.1905V17.0476Z" fill="#5584AC"/>
</g>
<defs>
<filter id="filter0_d_359_763" x="0" y="0" width="64" height="64" filterUnits="userSpaceOnUse" color-interpolation-filters="sRGB">
<feFlood flood-opacity="0" result="BackgroundImageFix"/>
<feColorMatrix in="SourceAlpha" type="matrix" values="0 0 0 0 0 0 0 0 0 0 0 0 0 0 0 0 0 0 127 0" result="hardAlpha"/>
<feOffset dy="6"/>
<feGaussianBlur stdDeviation="8"/>
<feComposite in2="hardAlpha" operator="out"/>
<feColorMatrix type="matrix" values="0 0 0 0 0 0 0 0 0 0 0 0 0 0 0 0 0 0 0.25 0"/>
<feBlend mode="normal" in2="BackgroundImageFix" result="effect1_dropShadow_359_763"/>
<feBlend mode="normal" in="SourceGraphic" in2="effect1_dropShadow_359_763" result="shape"/>
</filter>
</defs>
</svg>
