<svg width="42" height="48" viewBox="0 0 42 48" fill="none" xmlns="http://www.w3.org/2000/svg">
<g filter="url(#filter0_d_470_447)">
<path fill-rule="evenodd" clip-rule="evenodd" d="M9.50952 4.91588C3.1635 11.4703 3.1635 22.0973 9.5095 28.6518L20.1408 39.6324C20.6154 40.1225 21.3846 40.1225 21.8592 39.6324L32.4905 28.6518C38.8365 22.0973 38.8365 11.4703 32.4905 4.91588C26.1444 -1.63863 15.8555 -1.63863 9.50952 4.91588ZM13.8931 16.3456C13.8931 12.1871 17.157 8.81605 21.1831 8.81605C25.2093 8.81605 28.4732 12.1871 28.4732 16.3456C28.4732 20.504 25.2093 23.8751 21.1831 23.8751C17.157 23.8751 13.8931 20.504 13.8931 16.3456Z" fill="#F2994A"/>
</g>
<defs>
<filter id="filter0_d_470_447" x="0.75" y="0" width="40.5" height="48" filterUnits="userSpaceOnUse" color-interpolation-filters="sRGB">
<feFlood flood-opacity="0" result="BackgroundImageFix"/>
<feColorMatrix in="SourceAlpha" type="matrix" values="0 0 0 0 0 0 0 0 0 0 0 0 0 0 0 0 0 0 127 0" result="hardAlpha"/>
<feOffset dy="4"/>
<feGaussianBlur stdDeviation="2"/>
<feComposite in2="hardAlpha" operator="out"/>
<feColorMatrix type="matrix" values="0 0 0 0 0 0 0 0 0 0 0 0 0 0 0 0 0 0 0.2 0"/>
<feBlend mode="normal" in2="BackgroundImageFix" result="effect1_dropShadow_470_447"/>
<feBlend mode="normal" in="SourceGraphic" in2="effect1_dropShadow_470_447" result="shape"/>
</filter>
</defs>
</svg>
