<svg width="42" height="49" viewBox="0 0 42 49" fill="none" xmlns="http://www.w3.org/2000/svg">
<g filter="url(#filter0_d_470_427)">
<path fill-rule="evenodd" clip-rule="evenodd" d="M9.50952 5.25914C3.1635 11.8136 3.1635 22.4405 9.5095 28.995L20.1408 39.9756C20.6154 40.4658 21.3846 40.4658 21.8592 39.9756L32.4905 28.995C38.8365 22.4405 38.8365 11.8136 32.4905 5.25914C26.1444 -1.29536 15.8555 -1.29536 9.50952 5.25914ZM13.8931 16.6889C13.8931 12.5304 17.157 9.15931 21.1831 9.15931C25.2093 9.15931 28.4732 12.5304 28.4732 16.6889C28.4732 20.8473 25.2093 24.2184 21.1831 24.2184C17.157 24.2184 13.8931 20.8473 13.8931 16.6889Z" fill="#fc0d23"/>
</g>
<defs>
<filter id="filter0_d_470_427" x="0.75" y="0.343262" width="40.5" height="48" filterUnits="userSpaceOnUse" color-interpolation-filters="sRGB">
<feFlood flood-opacity="0" result="BackgroundImageFix"/>
<feColorMatrix in="SourceAlpha" type="matrix" values="0 0 0 0 0 0 0 0 0 0 0 0 0 0 0 0 0 0 127 0" result="hardAlpha"/>
<feOffset dy="4"/>
<feGaussianBlur stdDeviation="2"/>
<feComposite in2="hardAlpha" operator="out"/>
<feColorMatrix type="matrix" values="0 0 0 0 0 0 0 0 0 0 0 0 0 0 0 0 0 0 0.2 0"/>
<feBlend mode="normal" in2="BackgroundImageFix" result="effect1_dropShadow_470_427"/>
<feBlend mode="normal" in="SourceGraphic" in2="effect1_dropShadow_470_427" result="shape"/>
</filter>
</defs>
</svg>
