<svg width="28" height="22" viewBox="0 0 28 22" fill="none" xmlns="http://www.w3.org/2000/svg">
<path d="M0.666687 1.66665C0.666687 0.929313 1.26402 0.333313 2.00002 0.333313H19.3334C20.0694 0.333313 20.6667 0.929313 20.6667 1.66665C20.6667 2.40398 20.0694 2.99998 19.3334 2.99998H2.00002C1.26402 2.99998 0.666687 2.40398 0.666687 1.66665ZM26 9.66665H2.00002C1.26402 9.66665 0.666687 10.2626 0.666687 11C0.666687 11.7373 1.26402 12.3333 2.00002 12.3333H26C26.736 12.3333 27.3334 11.7373 27.3334 11C27.3334 10.2626 26.736 9.66665 26 9.66665ZM14 19H2.00002C1.26402 19 0.666687 19.596 0.666687 20.3333C0.666687 21.0706 1.26402 21.6666 2.00002 21.6666H14C14.736 21.6666 15.3334 21.0706 15.3334 20.3333C15.3334 19.596 14.736 19 14 19Z" fill="#5584AC"/>
</svg>
